<svg width="170" height="201" viewBox="0 0 170 201" fill="none" xmlns="http://www.w3.org/2000/svg">
<path fill-rule="evenodd" clip-rule="evenodd" d="M84.3114 200.561C75.1131 197.678 46.4199 176.536 25.2775 135.487C12.647 111.05 2.48769 79.4733 0.702947 40.4835C0.565659 38.4241 2.2131 36.6394 4.27243 36.5021C12.9216 35.9529 21.708 34.8546 30.2199 33.2072C30.0826 29.0885 29.1216 24.558 33.1029 23.7343C50.264 20.0275 70.7199 13.0258 82.8013 1.08176C84.3114 -0.428413 86.6453 -0.291125 88.0182 1.08176C100.1 12.8885 120.556 19.8902 137.717 23.7343C141.561 24.558 140.6 29.0885 140.462 33.2072C148.974 34.8546 157.898 36.0902 166.41 36.5021C168.469 36.6394 170.117 38.4241 169.979 40.4835C168.057 79.4733 158.035 111.05 145.405 135.487C124.125 176.673 95.1572 197.953 86.3707 200.561C85.6843 200.836 84.9979 200.836 84.3114 200.561Z" fill="white"/>
<path fill-rule="evenodd" clip-rule="evenodd" d="M86.4104 196.992C73.0935 193.148 10.3528 142.763 5.54773 40.3465C18.3155 39.66 32.0443 37.4634 44.9494 33.8939H128.009C140.914 37.4634 154.643 39.5227 167.41 40.3465C162.468 142.763 99.7274 193.148 86.4104 196.992Z" fill="#EAB307"/>
<path fill-rule="evenodd" clip-rule="evenodd" d="M85.4104 187.068C74.9765 183.361 25.6901 135.311 22.3951 37.5614C29.6714 36.4631 36.9477 34.9529 43.9494 33.0309H127.009C134.01 34.9529 141.287 36.4631 148.563 37.5614C145.131 135.311 95.8443 183.361 85.4104 187.068Z" fill="white"/>
<path fill-rule="evenodd" clip-rule="evenodd" d="M85.4103 180.929C60.8357 163.494 39.6934 94.7124 36.3984 69.3141C35.0256 59.0175 34.2018 39.3853 33.9272 27.5785C54.5205 23.048 73.8781 15.3599 85.4103 3.96497C96.9425 15.3599 116.437 23.048 136.893 27.5785C136.619 39.3853 135.795 59.0175 134.422 69.3141C131.127 94.7124 110.397 163.082 85.4103 180.929Z" fill="black"/>
<path fill-rule="evenodd" clip-rule="evenodd" d="M85.4104 146.058L88.568 153.197L96.2561 154.021L90.49 159.101L92.1375 166.651L85.4104 162.807L78.6833 166.651L80.3307 159.101L74.5646 154.021L82.2528 153.197L85.4104 146.058Z" fill="white"/>
<path fill-rule="evenodd" clip-rule="evenodd" d="M85.4104 140.292C112.456 140.292 134.56 118.189 134.56 91.1433C134.56 64.0975 112.456 41.9941 85.4104 41.9941C58.3646 41.9941 36.2612 64.0975 36.2612 91.1433C36.2612 118.189 58.3646 140.292 85.4104 140.292Z" fill="white"/>
<path fill-rule="evenodd" clip-rule="evenodd" d="M85.4104 132.742C112.456 132.742 134.56 110.638 134.56 83.5924C134.56 56.5466 112.456 34.4432 85.4104 34.4432C58.3646 34.4432 36.2612 56.5466 36.2612 83.5924C36.2612 110.638 58.3646 132.742 85.4104 132.742Z" fill="white"/>
<path fill-rule="evenodd" clip-rule="evenodd" d="M124.08 89.8123C123.242 88.4818 122.159 87.3263 120.902 86.416C120.483 86.1008 120.029 85.8207 119.575 85.5756C118.318 84.8754 116.922 84.3852 115.42 84.1401C114.792 84.035 114.163 84 113.5 84C113.046 84 112.627 84.035 112.208 84.07C111.51 84.1401 110.811 84.2801 110.148 84.4552C109.973 84.4902 109.799 84.5602 109.624 84.6303C107.983 85.1555 106.517 86.0308 105.26 87.1162C104.212 88.0266 103.339 89.112 102.641 90.3375C101.594 92.1583 101 94.2591 101 96.5C101 98.7409 101.594 100.842 102.641 102.662C103.339 103.888 104.212 104.973 105.26 105.884C106.517 107.004 107.983 107.845 109.624 108.37C109.799 108.44 109.973 108.475 110.148 108.545C110.811 108.72 111.51 108.86 112.208 108.93C112.627 108.965 113.081 109 113.5 109C114.163 109 114.792 108.965 115.42 108.86C116.922 108.615 118.318 108.125 119.575 107.424C120.029 107.179 120.483 106.864 120.902 106.584C122.159 105.674 123.242 104.483 124.08 103.188C125.302 101.262 126 98.951 126 96.5C126 94.049 125.302 91.7381 124.08 89.8123ZM119.575 86.381C120.029 86.6611 120.483 86.9762 120.902 87.3263C121.216 87.5714 121.531 87.8515 121.81 88.1667C122.054 88.4118 122.334 88.6919 122.543 88.972C122.508 88.972 122.473 88.937 122.439 88.937C121.95 88.3417 121.426 87.8515 120.902 87.4314C120.728 87.2913 120.553 87.1513 120.344 87.0112C120.099 86.8361 119.82 86.6961 119.575 86.556C119.052 86.2759 118.458 86.0658 117.865 85.8908C117.655 85.6807 117.446 85.4706 117.166 85.2955C118.039 85.5756 118.842 85.9258 119.575 86.381ZM115.42 86.6261C115.944 86.2759 116.817 86.0308 117.655 85.9958C118.318 86.1709 118.982 86.416 119.575 86.7311C119.785 86.8711 120.029 86.9762 120.239 87.1513C120.448 87.2913 120.693 87.4664 120.902 87.6415C121.531 88.1317 122.089 88.7619 122.683 89.4972C123.172 90.4426 123.311 91.598 123.032 92.4034C122.334 92.6134 121.601 92.7885 120.902 92.9636C120.518 93.0686 120.169 93.1387 119.785 93.2437C119.715 93.1737 119.645 93.1036 119.575 93.0336C118.563 91.9832 117.271 91.1779 115.944 90.6877C115.874 89.9524 115.77 89.2521 115.63 88.5518C115.56 88.3067 115.525 88.0616 115.42 87.8165C115.316 87.5014 115.211 87.1863 115.106 86.9062C115.176 86.8011 115.281 86.7311 115.42 86.6261ZM112.208 86.1008C113.256 86.2059 114.198 86.451 114.932 86.9062C115.141 87.3964 115.316 87.9566 115.455 88.5518V88.5868C115.595 89.2521 115.7 89.9874 115.77 90.6877C115.665 90.7227 115.56 90.7927 115.455 90.8627C114.303 91.493 113.011 92.5084 112.208 93.3487C112.173 93.3838 112.138 93.4188 112.103 93.4888C111.475 93.3137 110.811 93.1387 110.183 93.0336C110.043 92.9986 109.904 92.9986 109.799 92.9636L109.659 92.9286C108.926 92.7885 108.193 92.7185 107.425 92.6485C106.936 91.563 106.761 90.4076 106.761 89.2171C107.215 88.5518 107.809 87.9566 108.472 87.4664C108.856 87.1863 109.24 86.9062 109.694 86.6611C109.869 86.556 110.043 86.486 110.218 86.381C110.392 86.2759 110.602 86.2059 110.811 86.1359C111.23 86.0308 111.719 86.0658 112.208 86.1008ZM113.57 98.1106C113.151 98.8109 112.697 99.4762 112.208 100.141L112.173 100.176C111.684 100.842 111.161 101.472 110.637 102.102C110.462 102.102 110.288 102.102 110.148 102.102C109.973 102.102 109.799 102.102 109.624 102.067C108.402 101.997 107.215 101.682 106.133 101.227C105.784 100.632 105.504 100.036 105.26 99.4062C105.19 99.2311 105.12 99.056 105.085 98.881C104.841 98.1106 104.666 97.3403 104.527 96.535C104.736 96.0098 104.98 95.4846 105.26 95.0294C105.853 94.049 106.552 93.3137 107.32 92.7535C108.088 92.8235 108.856 92.8936 109.589 93.0336L109.694 93.0686C109.834 93.1036 109.973 93.1036 110.113 93.1387C110.707 93.2437 111.335 93.4188 111.929 93.5588C111.999 93.8039 112.103 94.049 112.173 94.2941C112.627 95.5896 113.081 96.8501 113.57 98.1106ZM105.19 88.1317L105.26 88.0616C106.482 86.8712 107.948 85.9258 109.624 85.3305C109.799 85.2605 109.973 85.2255 110.148 85.1555C110.358 85.0854 110.567 85.0504 110.777 84.9804C110.532 85.2255 110.462 85.5756 110.462 85.9258C110.358 85.9608 110.253 85.9958 110.148 86.0658C109.973 86.1359 109.799 86.2409 109.624 86.3459C109.135 86.591 108.716 86.9062 108.297 87.2213C107.634 87.7465 107.041 88.3767 106.552 89.042C106.098 89.1471 105.644 89.2521 105.26 89.4272C104.631 89.6723 104.073 90.0574 103.654 90.5126C103.654 90.4076 103.619 90.3375 103.619 90.2325C103.619 90.1975 103.619 90.1625 103.619 90.0924C104.073 89.3922 104.596 88.7269 105.19 88.1317ZM102.641 91.9482C102.885 91.388 103.13 90.8627 103.444 90.3375C103.444 90.4426 103.479 90.5826 103.514 90.6877L103.479 90.7577C103.13 91.2129 102.851 91.8081 102.641 92.4384C102.362 93.2787 102.222 94.1891 102.292 94.9944C102.117 95.2045 101.943 95.4146 101.768 95.6947C101.838 94.3992 102.152 93.1387 102.641 91.9482ZM104.457 103.958C104.422 103.958 104.422 103.923 104.387 103.923C103.689 103.048 103.095 102.067 102.641 101.017C102.047 99.6163 101.733 98.1106 101.733 96.5C101.733 96.395 101.733 96.2899 101.733 96.1849C101.768 96.0798 101.838 95.9748 101.873 95.9048C102.013 95.6597 102.152 95.4496 102.327 95.2745C102.432 95.3796 102.501 95.4846 102.606 95.5546C103.095 95.9748 103.654 96.2899 104.282 96.535C104.387 97.3754 104.596 98.2157 104.841 98.986C104.946 99.3361 105.085 99.6513 105.225 99.9664C105.434 100.492 105.679 100.982 105.958 101.472C105.609 102.382 105.365 103.293 105.434 104.273C105.365 104.273 105.295 104.273 105.225 104.238C104.98 104.168 104.701 104.098 104.457 103.958ZM109.624 107.634C107.983 107.039 106.482 106.129 105.26 104.903L105.19 104.833C105.015 104.658 104.841 104.448 104.666 104.273C104.876 104.343 105.05 104.413 105.26 104.448C105.33 104.448 105.434 104.483 105.504 104.483C105.958 105.464 108.018 106.864 109.38 107.109C109.45 107.284 109.52 107.459 109.624 107.634ZM118.528 107.179C117.55 107.634 116.538 107.95 115.455 108.16C114.827 108.265 114.198 108.335 113.535 108.335C113.081 108.335 112.662 108.3 112.243 108.265C111.545 108.195 110.846 108.055 110.183 107.845C110.113 107.845 110.078 107.81 110.008 107.775C109.834 107.634 109.729 107.424 109.659 107.179V107.144C109.834 107.144 110.008 107.109 110.183 107.074C110.951 106.934 111.615 106.654 112.243 106.199C112.383 106.094 112.522 105.989 112.627 105.884C113.186 106.129 113.989 106.234 114.862 106.199C115.071 106.199 115.281 106.199 115.455 106.164C116.223 106.129 116.992 105.989 117.69 105.779C118.004 106.164 118.318 106.549 118.772 106.759C118.668 106.899 118.598 107.039 118.528 107.179ZM119.575 106.584C119.331 106.724 119.087 106.864 118.807 107.004C118.842 106.934 118.877 106.829 118.912 106.759C119.156 106.724 119.366 106.654 119.575 106.584C119.61 106.549 119.645 106.549 119.645 106.514C119.645 106.549 119.61 106.584 119.575 106.584ZM119.575 103.713C119.052 104.483 118.458 105.113 117.934 105.464C117.166 105.709 116.293 105.884 115.42 105.954C115.211 105.954 115.001 105.989 114.827 105.989C113.954 105.989 113.186 105.884 112.627 105.674C112.487 105.499 112.348 105.289 112.208 105.113C111.615 104.273 111.126 103.328 110.811 102.277C111.3 101.717 111.754 101.122 112.208 100.562C112.278 100.492 112.348 100.387 112.383 100.317C112.872 99.6513 113.325 99.021 113.709 98.3207C114.268 98.3557 114.862 98.3908 115.42 98.3908C116.433 98.3908 117.446 98.3557 118.458 98.2507C118.877 98.7409 119.261 99.2661 119.575 99.8613C119.61 99.9314 119.645 99.9664 119.68 100.036C119.994 100.632 120.274 101.262 120.518 101.927C120.309 102.522 119.959 103.153 119.575 103.713ZM120.902 101.892C120.832 101.892 120.763 101.892 120.728 101.892C120.483 101.157 120.204 100.527 119.855 99.8964C119.785 99.7563 119.68 99.5812 119.61 99.4412C119.331 98.986 119.017 98.5308 118.668 98.1457C119.087 97.2353 119.401 96.3599 119.61 95.4496C119.75 94.7843 119.855 94.119 119.925 93.4538C120.274 93.3838 120.623 93.2787 120.937 93.2087C121.67 93.0336 122.369 92.8585 123.102 92.6485C123.416 92.8585 123.8 93.3137 124.115 93.8739C124.394 94.3992 124.673 95.0294 124.848 95.7647C124.918 96.8501 124.813 97.8305 124.568 98.7759C124.464 99.1961 124.289 99.6162 124.115 100.036C123.94 100.422 123.73 100.807 123.521 101.157C122.613 101.577 121.74 101.857 120.902 101.892ZM123.311 102.978C123.556 102.347 123.661 101.752 123.626 101.192C123.8 100.947 123.94 100.702 124.08 100.422C124.359 99.8964 124.568 99.3361 124.708 98.7759C124.953 97.9006 125.057 96.9902 125.022 96.0098C125.092 95.9398 125.197 95.7997 125.267 95.6597C125.302 95.9398 125.302 96.2199 125.302 96.5C125.302 98.3557 124.883 100.106 124.115 101.682C123.835 102.137 123.591 102.557 123.311 102.978Z" fill="black"/>
<path d="M53.6644 47.47L70.3844 47.8H83.4744C91.7611 47.8 98.2878 49.5967 103.054 53.19C107.821 56.71 110.204 62.21 110.204 69.69C110.204 75.3367 108.701 79.9933 105.694 83.66C102.761 87.2533 98.7278 89.7833 93.5944 91.25C96.1611 95.7233 99.3511 100.82 103.164 106.54C107.051 112.26 110.168 116.477 112.514 119.19C114.934 121.83 116.951 123.297 118.564 123.59C120.178 123.81 122.671 123.92 126.044 123.92C126.191 124.507 126.264 125.093 126.264 125.68C126.264 126.193 126.191 126.743 126.044 127.33C120.691 127.623 116.511 127.99 113.504 128.43C110.571 128.943 108.811 129.2 108.224 129.2C107.711 129.2 106.611 128.283 104.924 126.45C103.311 124.543 101.404 121.94 99.2044 118.64C97.0044 115.267 94.9878 112.15 93.1544 109.29C91.3944 106.43 89.3777 103.167 87.1044 99.5C84.9044 95.76 83.5477 93.4867 83.0344 92.68C78.3411 92.68 74.7111 92.5333 72.1444 92.24V108.63C72.1444 113.03 72.4011 117.87 72.9144 123.15C75.1877 123.663 78.4144 123.92 82.5944 123.92C82.8144 124.507 82.9244 125.167 82.9244 125.9C82.9244 126.56 82.8144 127.037 82.5944 127.33L67.9644 127C62.3911 127 57.2944 127.293 52.6744 127.88C52.3077 127.44 52.1244 126.817 52.1244 126.01L52.2344 125.13C56.0477 124.25 58.5411 122.893 59.7144 121.06C60.6677 119.593 61.2911 117.76 61.5844 115.56C62.4644 108.887 62.9044 99.8667 62.9044 88.5C62.9044 64.2267 62.2444 51.87 60.9244 51.43C59.5311 51.0633 57.1111 50.88 53.6644 50.88C53.3711 50.3667 53.2244 49.89 53.2244 49.45C53.2244 49.01 53.3711 48.35 53.6644 47.47ZM100.634 70.9C100.634 65.4733 99.0944 60.8533 96.0144 57.04C93.0077 53.2267 88.9744 51.32 83.9144 51.32C78.8544 51.32 75.3344 51.4667 73.3544 51.76C72.5477 54.9867 72.1444 67.16 72.1444 88.28C74.7844 88.5 78.4511 88.61 83.1444 88.61C87.8377 88.61 91.9077 86.9967 95.3544 83.77C98.8744 80.5433 100.634 76.2533 100.634 70.9Z" fill="black"/>
</svg>
